<svg xmlns="http://www.w3.org/2000/svg" xmlns:xlink="http://www.w3.org/1999/xlink" width="50" zoomAndPan="magnify" viewBox="0 0 37.5 37.499999" height="50" preserveAspectRatio="xMidYMid meet" version="1.0"><defs><clipPath id="0431add138"><path d="M 15 16 L 36.703125 16 L 36.703125 25 L 15 25 Z M 15 16 " clip-rule="nonzero"/></clipPath><clipPath id="21a0e22687"><path d="M 0.703125 16 L 25 16 L 25 37.007812 L 0.703125 37.007812 Z M 0.703125 16 " clip-rule="nonzero"/></clipPath></defs><g clip-path="url(#0431add138)"><path fill="#ffffff" d="M 35.316406 18.3125 C 35.238281 18.460938 35.105469 18.566406 34.945312 18.617188 L 33.324219 19.101562 L 33.265625 17.816406 L 34.589844 17.417969 C 34.75 17.371094 34.917969 17.386719 35.0625 17.46875 C 35.210938 17.546875 35.316406 17.679688 35.363281 17.839844 C 35.414062 18 35.394531 18.167969 35.316406 18.3125 Z M 22.40625 22.378906 L 22.050781 21.179688 L 32.03125 18.183594 L 32.09375 19.472656 Z M 18.367188 23.589844 L 16.996094 23.347656 L 18.011719 22.390625 L 20.855469 21.539062 L 21.214844 22.734375 Z M 36.558594 17.480469 C 36.414062 17 36.09375 16.605469 35.65625 16.367188 C 35.214844 16.128906 34.710938 16.078125 34.230469 16.222656 L 17.511719 21.238281 C 17.421875 21.265625 17.335938 21.3125 17.265625 21.378906 L 15.234375 23.292969 C 15.0625 23.457031 14.996094 23.703125 15.0625 23.929688 C 15.132812 24.15625 15.320312 24.324219 15.554688 24.363281 L 18.300781 24.84375 C 18.335938 24.851562 18.371094 24.855469 18.40625 24.855469 C 18.46875 24.855469 18.527344 24.847656 18.585938 24.828125 L 32.152344 20.757812 L 32.210938 22.046875 L 27.898438 23.339844 L 28.257812 24.535156 L 33.03125 23.101562 C 33.308594 23.019531 33.488281 22.761719 33.476562 22.476562 L 33.382812 20.390625 L 35.304688 19.8125 C 35.78125 19.667969 36.175781 19.347656 36.414062 18.90625 C 36.652344 18.464844 36.703125 17.960938 36.558594 17.480469 " fill-opacity="1" fill-rule="nonzero"/></g><g clip-path="url(#21a0e22687)"><path fill="#ffffff" d="M 23.140625 36.246094 L 13.167969 36.246094 L 13.167969 27.5 L 15.660156 27.5 L 15.660156 30.621094 C 15.660156 30.96875 15.941406 31.246094 16.285156 31.246094 L 20.023438 31.246094 C 20.367188 31.246094 20.648438 30.96875 20.648438 30.621094 L 20.648438 27.5 L 23.140625 27.5 Z M 1.949219 27.5 L 4.441406 27.5 L 4.441406 30.621094 C 4.441406 30.96875 4.722656 31.246094 5.066406 31.246094 L 8.804688 31.246094 C 9.148438 31.246094 9.429688 30.96875 9.429688 30.621094 L 9.429688 27.5 L 11.921875 27.5 L 11.921875 36.246094 L 1.949219 36.246094 Z M 5.6875 27.5 L 8.183594 27.5 L 8.183594 29.996094 L 5.6875 29.996094 Z M 1.949219 17.5 L 4.441406 17.5 L 4.441406 20.625 C 4.441406 20.96875 4.722656 21.25 5.066406 21.25 L 8.804688 21.25 C 9.148438 21.25 9.429688 20.96875 9.429688 20.625 L 9.429688 17.5 L 11.921875 17.5 L 11.921875 26.25 L 1.949219 26.25 Z M 5.6875 17.5 L 8.183594 17.5 L 8.183594 20 L 5.6875 20 Z M 16.90625 27.5 L 19.398438 27.5 L 19.398438 29.996094 L 16.90625 29.996094 Z M 23.761719 26.25 L 13.167969 26.25 L 13.167969 16.875 C 13.167969 16.53125 12.890625 16.25 12.542969 16.25 L 1.328125 16.25 C 0.980469 16.25 0.703125 16.53125 0.703125 16.875 L 0.703125 36.871094 C 0.703125 37.214844 0.980469 37.496094 1.328125 37.496094 L 23.761719 37.496094 C 24.105469 37.496094 24.386719 37.214844 24.386719 36.871094 L 24.386719 26.875 C 24.386719 26.527344 24.105469 26.25 23.761719 26.25 " fill-opacity="1" fill-rule="nonzero"/></g><path fill="#ffffff" d="M 20.648438 34.996094 L 21.894531 34.996094 L 21.894531 33.746094 L 20.648438 33.746094 L 20.648438 34.996094 " fill-opacity="1" fill-rule="nonzero"/><path fill="#ffffff" d="M 9.429688 34.996094 L 10.675781 34.996094 L 10.675781 33.746094 L 9.429688 33.746094 L 9.429688 34.996094 " fill-opacity="1" fill-rule="nonzero"/><path fill="#ffffff" d="M 9.429688 25 L 10.675781 25 L 10.675781 23.75 L 9.429688 23.75 L 9.429688 25 " fill-opacity="1" fill-rule="nonzero"/><path fill="#ffffff" d="M 16.90625 3.753906 L 18.777344 3.753906 C 18.96875 3.753906 19.148438 3.664062 19.269531 3.511719 C 19.386719 3.359375 19.429688 3.164062 19.382812 2.976562 L 18.953125 1.253906 L 22.339844 1.253906 L 21.910156 2.976562 C 21.867188 3.164062 21.90625 3.359375 22.027344 3.511719 C 22.144531 3.664062 22.324219 3.753906 22.515625 3.753906 L 24.386719 3.753906 L 24.386719 5.003906 L 16.90625 5.003906 Z M 10.675781 5.003906 C 10.675781 4.3125 11.234375 3.753906 11.921875 3.753906 L 15.660156 3.753906 L 15.660156 5.003906 L 12.542969 5.003906 C 12.199219 5.003906 11.921875 5.28125 11.921875 5.628906 L 11.921875 15 L 13.167969 15 L 13.167969 6.253906 L 28.125 6.253906 L 28.125 16.25 L 29.371094 16.25 L 29.371094 5.628906 C 29.371094 5.28125 29.09375 5.003906 28.75 5.003906 L 25.632812 5.003906 L 25.632812 3.753906 L 29.371094 3.753906 C 30.058594 3.753906 30.617188 4.3125 30.617188 5.003906 L 30.617188 15.625 L 31.863281 15.625 L 31.863281 5.003906 C 31.863281 3.625 30.746094 2.503906 29.371094 2.503906 L 23.316406 2.503906 L 23.746094 0.78125 C 23.792969 0.59375 23.75 0.394531 23.632812 0.246094 C 23.511719 0.09375 23.332031 0.00390625 23.140625 0.00390625 L 18.152344 0.00390625 C 17.960938 0.00390625 17.78125 0.09375 17.664062 0.246094 C 17.542969 0.394531 17.503906 0.59375 17.550781 0.78125 L 17.980469 2.503906 L 11.921875 2.503906 C 10.546875 2.503906 9.429688 3.625 9.429688 5.003906 L 9.429688 15 L 10.675781 15 L 10.675781 5.003906 " fill-opacity="1" fill-rule="nonzero"/><path fill="#ffffff" d="M 30.617188 30.621094 C 30.617188 31.3125 30.058594 31.871094 29.371094 31.871094 L 25.632812 31.871094 L 25.632812 33.121094 L 29.371094 33.121094 C 30.746094 33.121094 31.863281 32 31.863281 30.621094 L 31.863281 25 L 30.617188 25 L 30.617188 30.621094 " fill-opacity="1" fill-rule="nonzero"/><path fill="#ffffff" d="M 29.371094 29.996094 L 29.371094 25.625 L 28.125 25.625 L 28.125 29.371094 L 25.632812 29.371094 L 25.632812 30.621094 L 28.75 30.621094 C 29.09375 30.621094 29.371094 30.34375 29.371094 29.996094 " fill-opacity="1" fill-rule="nonzero"/><path fill="#ffffff" d="M 16.90625 10 L 15.660156 10 L 15.660156 8.753906 L 16.90625 8.753906 Z M 18.152344 8.128906 C 18.152344 7.78125 17.875 7.503906 17.53125 7.503906 L 15.039062 7.503906 C 14.695312 7.503906 14.414062 7.78125 14.414062 8.128906 L 14.414062 10.625 C 14.414062 10.972656 14.695312 11.25 15.039062 11.25 L 17.53125 11.25 C 17.875 11.25 18.152344 10.972656 18.152344 10.625 L 18.152344 8.128906 " fill-opacity="1" fill-rule="nonzero"/><path fill="#ffffff" d="M 16.90625 15.625 L 15.660156 15.625 L 15.660156 14.375 L 16.90625 14.375 Z M 17.53125 13.125 L 15.039062 13.125 C 14.695312 13.125 14.414062 13.40625 14.414062 13.75 L 14.414062 16.25 C 14.414062 16.59375 14.695312 16.875 15.039062 16.875 L 17.53125 16.875 C 17.875 16.875 18.152344 16.59375 18.152344 16.25 L 18.152344 13.75 C 18.152344 13.40625 17.875 13.125 17.53125 13.125 " fill-opacity="1" fill-rule="nonzero"/><path fill="#ffffff" d="M 19.398438 7.503906 L 19.398438 8.753906 L 20.648438 8.753906 L 20.648438 7.503906 L 19.398438 7.503906 " fill-opacity="1" fill-rule="nonzero"/><path fill="#ffffff" d="M 26.878906 10 L 19.398438 10 L 19.398438 11.25 L 26.878906 11.25 L 26.878906 10 " fill-opacity="1" fill-rule="nonzero"/><path fill="#ffffff" d="M 26.878906 7.503906 L 21.894531 7.503906 L 21.894531 8.753906 L 26.878906 8.753906 L 26.878906 7.503906 " fill-opacity="1" fill-rule="nonzero"/><path fill="#ffffff" d="M 19.398438 13.125 L 19.398438 14.375 L 20.648438 14.375 L 20.648438 13.125 L 19.398438 13.125 " fill-opacity="1" fill-rule="nonzero"/><path fill="#ffffff" d="M 19.398438 16.875 L 26.878906 16.875 L 26.878906 15.625 L 19.398438 15.625 L 19.398438 16.875 " fill-opacity="1" fill-rule="nonzero"/><path fill="#ffffff" d="M 26.878906 13.125 L 21.894531 13.125 L 21.894531 14.375 L 26.878906 14.375 L 26.878906 13.125 " fill-opacity="1" fill-rule="nonzero"/></svg>