<svg xmlns="http://www.w3.org/2000/svg" xmlns:xlink="http://www.w3.org/1999/xlink" width="50" zoomAndPan="magnify" viewBox="0 0 37.5 37.499999" height="50" preserveAspectRatio="xMidYMid meet" version="1.0"><defs><clipPath id="5d007d885b"><path d="M 0 0 L 37.007812 0 L 37.007812 37.007812 L 0 37.007812 Z M 0 0 " clip-rule="nonzero"/></clipPath></defs><g clip-path="url(#5d007d885b)"><path fill="#ffffff" d="M 37.496094 18.75 C 37.488281 29.066406 29.160156 37.5 18.738281 37.492188 C 8.390625 37.488281 0.00390625 29.132812 0.0078125 18.738281 C 0.0078125 8.332031 8.429688 0.0078125 18.753906 0.00390625 C 29.101562 0 37.496094 8.402344 37.496094 18.75 Z M 21.988281 22.855469 C 21.988281 20.542969 21.988281 18.238281 21.992188 15.925781 C 21.996094 15.054688 21.683594 14.3125 21.039062 13.738281 C 20.023438 12.828125 18.839844 12.636719 17.574219 13.085938 C 16.363281 13.515625 15.550781 14.679688 15.558594 15.992188 C 15.582031 20.59375 15.570312 25.195312 15.5625 29.796875 C 15.5625 32.398438 17.792969 32.835938 18.855469 32.832031 C 20.457031 32.824219 22.03125 31.535156 22 29.683594 C 21.957031 27.40625 21.988281 25.128906 21.988281 22.855469 Z M 22.207031 8.089844 C 22.207031 6.171875 20.675781 4.644531 18.75 4.644531 C 16.824219 4.644531 15.289062 6.183594 15.292969 8.109375 C 15.292969 10.011719 16.847656 11.5625 18.753906 11.5625 C 20.675781 11.5625 22.207031 10.019531 22.207031 8.089844 Z M 22.207031 8.089844 " fill-opacity="1" fill-rule="nonzero"/></g></svg>