<svg xmlns="http://www.w3.org/2000/svg" xmlns:xlink="http://www.w3.org/1999/xlink" width="50" zoomAndPan="magnify" viewBox="0 0 37.5 37.499999" height="50" preserveAspectRatio="xMidYMid meet" version="1.0"><defs><clipPath id="6b654c2b67"><path d="M 4.640625 0 L 33 0 L 33 36 L 4.640625 36 Z M 4.640625 0 " clip-rule="nonzero"/></clipPath><clipPath id="7423e84ab4"><path d="M 4.640625 15 L 18 15 L 18 24 L 4.640625 24 Z M 4.640625 15 " clip-rule="nonzero"/></clipPath><clipPath id="fa66862b12"><path d="M 4.640625 30 L 13 30 L 13 37.007812 L 4.640625 37.007812 Z M 4.640625 30 " clip-rule="nonzero"/></clipPath><clipPath id="3fc5caab2a"><path d="M 9 30 L 13 30 L 13 37.007812 L 9 37.007812 Z M 9 30 " clip-rule="nonzero"/></clipPath></defs><g clip-path="url(#6b654c2b67)"><path fill="#ffffff" d="M 31.992188 14.839844 C 30.078125 6.570312 22.738281 0.269531 14.472656 0.113281 C 11.625 0.0625 8.777344 0.0351562 4.640625 0.0273438 L 4.640625 7.777344 C 8.183594 7.777344 10.617188 7.785156 13.046875 7.796875 C 18.296875 7.820312 22.582031 10.828125 24.191406 15.523438 C 25.835938 20.300781 24.253906 25.261719 20.046875 28.539062 C 19.707031 28.800781 19.371094 29.070312 19.011719 29.359375 C 20.347656 31.585938 21.621094 33.714844 22.894531 35.839844 C 30.078125 31.949219 33.890625 23.039062 31.992188 14.839844 Z M 31.992188 14.839844 " fill-opacity="1" fill-rule="nonzero"/></g><g clip-path="url(#7423e84ab4)"><path fill="#ffffff" d="M 12.679688 15.410156 C 10.3125 15.402344 7.941406 15.402344 4.640625 15.402344 L 4.640625 23.160156 C 7.28125 23.175781 9.921875 23.160156 12.566406 23.152344 C 15.277344 23.148438 17.097656 21.53125 17.101562 19.160156 C 17.101562 16.972656 15.300781 15.417969 12.679688 15.410156 Z M 12.679688 15.410156 " fill-opacity="1" fill-rule="nonzero"/></g><g clip-path="url(#fa66862b12)"><path fill="#ffffff" d="M 4.640625 37.472656 L 12.972656 37.472656 L 9.050781 30.703125 C 8.511719 30.675781 7.851562 30.699219 4.640625 30.746094 Z M 4.640625 37.472656 " fill-opacity="1" fill-rule="nonzero"/></g><g clip-path="url(#3fc5caab2a)"><path fill="#ffffff" d="M 12.972656 37.472656 L 9.050781 30.703125 " fill-opacity="1" fill-rule="nonzero"/></g></svg>