<svg xmlns="http://www.w3.org/2000/svg" xmlns:xlink="http://www.w3.org/1999/xlink" width="50" zoomAndPan="magnify" viewBox="0 0 37.5 37.499999" height="50" preserveAspectRatio="xMidYMid meet" version="1.0"><defs><clipPath id="d19a264354"><path d="M 1.59375 25 L 36.09375 25 L 36.09375 37.007812 L 1.59375 37.007812 Z M 1.59375 25 " clip-rule="nonzero"/></clipPath></defs><g clip-path="url(#d19a264354)"><path fill="#ffffff" d="M 6.058594 32.386719 C 5.707031 32.386719 5.421875 32.671875 5.421875 33.019531 L 5.421875 33.65625 L 2.230469 33.65625 C 1.878906 33.65625 1.59375 33.941406 1.59375 34.289062 C 1.59375 34.636719 1.878906 34.921875 2.230469 34.921875 L 5.421875 34.921875 C 5.421875 35.273438 5.707031 35.558594 6.058594 35.558594 L 11.160156 35.558594 C 11.511719 35.558594 11.796875 35.273438 11.796875 34.921875 L 11.796875 34.679688 L 16.558594 36.648438 C 17.898438 37.191406 19.3125 37.460938 20.730469 37.460938 C 22.0625 37.460938 23.398438 37.21875 24.671875 36.738281 L 34.523438 33 C 35.109375 32.78125 35.570312 32.339844 35.824219 31.765625 C 36.085938 31.183594 36.101562 30.539062 35.867188 29.945312 C 35.632812 29.355469 35.179688 28.894531 34.59375 28.648438 C 34.019531 28.410156 33.382812 28.410156 32.804688 28.652344 L 28.675781 30.398438 C 28.679688 30.324219 28.695312 30.246094 28.695312 30.167969 C 28.695312 28.941406 27.695312 27.945312 26.464844 27.945312 L 21.515625 27.945312 C 21.019531 27.945312 20.519531 27.828125 20.078125 27.609375 C 18.015625 26.582031 15.714844 26.042969 13.414062 26.042969 L 13.074219 26.042969 C 12.722656 26.042969 12.433594 26.328125 12.433594 26.679688 C 12.433594 27.027344 12.722656 27.3125 13.074219 27.3125 L 13.414062 27.3125 C 15.515625 27.3125 17.625 27.808594 19.507812 28.746094 C 20.128906 29.050781 20.820312 29.214844 21.515625 29.214844 L 26.464844 29.214844 C 26.992188 29.214844 27.421875 29.640625 27.421875 30.167969 C 27.421875 30.621094 27.101562 30.996094 26.675781 31.09375 C 26.589844 31.101562 26.507812 31.117188 26.425781 31.117188 L 18.8125 31.117188 C 18.460938 31.117188 18.175781 31.402344 18.175781 31.753906 C 18.175781 32.101562 18.460938 32.386719 18.8125 32.386719 L 26.425781 32.386719 C 26.4375 32.386719 26.445312 32.382812 26.457031 32.382812 C 26.460938 32.382812 26.460938 32.386719 26.464844 32.386719 C 26.476562 32.386719 26.488281 32.382812 26.5 32.382812 C 27.011719 32.371094 27.503906 32.273438 27.972656 32.074219 L 33.304688 29.820312 C 33.5625 29.714844 33.84375 29.714844 34.101562 29.820312 C 34.367188 29.929688 34.570312 30.140625 34.675781 30.410156 C 34.785156 30.683594 34.78125 30.984375 34.660156 31.253906 C 34.542969 31.515625 34.332031 31.71875 34.070312 31.816406 L 24.21875 35.550781 C 21.894531 36.433594 19.34375 36.40625 17.042969 35.472656 L 11.796875 33.308594 L 11.796875 26.042969 C 11.796875 25.695312 11.511719 25.410156 11.160156 25.410156 L 6.058594 25.410156 C 5.707031 25.410156 5.421875 25.695312 5.421875 26.042969 L 2.230469 26.042969 C 1.878906 26.042969 1.59375 26.328125 1.59375 26.679688 C 1.59375 27.027344 1.878906 27.3125 2.230469 27.3125 L 5.421875 27.3125 L 5.421875 30.484375 C 5.421875 30.832031 5.707031 31.117188 6.058594 31.117188 C 6.410156 31.117188 6.695312 30.832031 6.695312 30.484375 L 6.695312 26.679688 L 10.523438 26.679688 L 10.523438 34.289062 L 6.695312 34.289062 L 6.695312 33.019531 C 6.695312 32.671875 6.410156 32.386719 6.058594 32.386719 " fill-opacity="1" fill-rule="nonzero"/></g><path fill="#ffffff" d="M 7.332031 5.578125 L 11.585938 4.230469 L 23.511719 8.003906 L 20.726562 8.886719 L 10.078125 5.519531 C 9.742188 5.410156 9.382812 5.597656 9.277344 5.929688 C 9.167969 6.261719 9.355469 6.621094 9.691406 6.726562 L 20.085938 10.015625 L 20.085938 19.066406 C 20.085938 19.417969 20.375 19.703125 20.726562 19.703125 C 21.078125 19.703125 21.363281 19.417969 21.363281 19.066406 L 21.363281 10.015625 L 24.976562 8.875 L 24.976562 13.082031 C 24.976562 13.285156 25.074219 13.472656 25.238281 13.59375 C 25.347656 13.671875 25.480469 13.714844 25.613281 13.714844 C 25.679688 13.714844 25.746094 13.707031 25.808594 13.6875 L 27.296875 13.214844 C 27.628906 13.105469 27.816406 12.75 27.710938 12.417969 C 27.601562 12.082031 27.242188 11.898438 26.90625 12.003906 L 26.253906 12.214844 L 26.253906 8.472656 L 29.546875 7.429688 L 29.546875 11.171875 L 28.820312 11.398438 C 28.488281 11.503906 28.300781 11.863281 28.40625 12.195312 C 28.496094 12.46875 28.742188 12.636719 29.015625 12.636719 C 29.078125 12.636719 29.144531 12.628906 29.210938 12.609375 L 30.378906 12.238281 C 30.640625 12.15625 30.820312 11.910156 30.820312 11.632812 L 30.820312 7.023438 L 34.117188 5.980469 L 34.117188 19.871094 L 21.363281 23.90625 L 21.363281 21.605469 C 21.363281 21.253906 21.078125 20.96875 20.726562 20.96875 C 20.375 20.96875 20.085938 21.253906 20.085938 21.605469 L 20.085938 23.90625 L 7.332031 19.871094 Z M 25.613281 7.339844 L 13.6875 3.566406 L 16.152344 2.789062 L 28.082031 6.5625 Z M 20.726562 1.339844 L 32.652344 5.113281 L 30.183594 5.894531 L 18.257812 2.121094 Z M 6.058594 5.113281 L 6.058594 20.335938 C 6.058594 20.609375 6.238281 20.855469 6.5 20.941406 L 20.53125 25.378906 C 20.59375 25.398438 20.660156 25.410156 20.726562 25.410156 C 20.789062 25.410156 20.855469 25.398438 20.917969 25.378906 L 34.949219 20.941406 C 35.214844 20.855469 35.390625 20.609375 35.390625 20.335938 L 35.390625 5.113281 C 35.390625 5.054688 35.378906 5 35.363281 4.941406 C 35.363281 4.933594 35.363281 4.929688 35.363281 4.921875 C 35.363281 4.921875 35.363281 4.921875 35.359375 4.917969 C 35.335938 4.847656 35.296875 4.78125 35.25 4.71875 C 35.234375 4.699219 35.21875 4.6875 35.199219 4.671875 C 35.164062 4.632812 35.125 4.601562 35.078125 4.578125 C 35.054688 4.5625 35.03125 4.550781 35.007812 4.539062 C 34.984375 4.527344 34.96875 4.515625 34.949219 4.507812 L 20.917969 0.0703125 C 20.792969 0.03125 20.65625 0.03125 20.53125 0.0703125 L 6.5 4.507812 C 6.238281 4.59375 6.058594 4.839844 6.058594 5.113281 " fill-opacity="1" fill-rule="nonzero"/><path fill="#ffffff" d="M 9.246094 15.894531 C 8.894531 15.894531 8.609375 16.179688 8.609375 16.53125 L 8.609375 18.433594 C 8.609375 18.78125 8.894531 19.066406 9.246094 19.066406 C 9.597656 19.066406 9.882812 18.78125 9.882812 18.433594 L 9.882812 16.53125 C 9.882812 16.179688 9.597656 15.894531 9.246094 15.894531 " fill-opacity="1" fill-rule="nonzero"/><path fill="#ffffff" d="M 11.796875 16.53125 C 11.445312 16.53125 11.160156 16.816406 11.160156 17.164062 L 11.160156 19.066406 C 11.160156 19.417969 11.445312 19.703125 11.796875 19.703125 C 12.148438 19.703125 12.433594 19.417969 12.433594 19.066406 L 12.433594 17.164062 C 12.433594 16.816406 12.148438 16.53125 11.796875 16.53125 " fill-opacity="1" fill-rule="nonzero"/></svg>