<svg xmlns="http://www.w3.org/2000/svg" xmlns:xlink="http://www.w3.org/1999/xlink" width="50" zoomAndPan="magnify" viewBox="0 0 37.5 37.499999" height="50" preserveAspectRatio="xMidYMid meet" version="1.0"><defs><clipPath id="830236ba5e"><path d="M 1.5 0 L 36 0 L 36 37.007812 L 1.5 37.007812 Z M 1.5 0 " clip-rule="nonzero"/></clipPath></defs><path fill="#ffffff" d="M 18.164062 31.222656 C 18.234375 31.3125 18.324219 31.378906 18.425781 31.429688 C 18.527344 31.480469 18.636719 31.503906 18.75 31.503906 C 18.863281 31.503906 18.972656 31.480469 19.074219 31.429688 C 19.175781 31.378906 19.265625 31.3125 19.335938 31.222656 L 22.335938 27.472656 C 22.535156 27.226562 22.566406 26.960938 22.429688 26.675781 C 22.292969 26.390625 22.066406 26.25 21.75 26.25 L 21 26.25 L 21 21.75 C 21 21.542969 20.925781 21.367188 20.78125 21.21875 C 20.632812 21.074219 20.457031 21 20.25 21 L 17.25 21 C 17.042969 21 16.867188 21.074219 16.71875 21.21875 C 16.574219 21.367188 16.5 21.542969 16.5 21.75 L 16.5 26.25 L 15.75 26.25 C 15.433594 26.25 15.207031 26.390625 15.070312 26.675781 C 14.933594 26.960938 14.964844 27.226562 15.164062 27.472656 Z M 18 27 L 18 22.5 L 19.5 22.5 L 19.5 27 C 19.5 27.195312 19.566406 27.367188 19.699219 27.511719 C 19.832031 27.65625 19.996094 27.734375 20.191406 27.75 L 18.75 29.550781 L 17.308594 27.75 C 17.503906 27.734375 17.667969 27.65625 17.800781 27.511719 C 17.933594 27.367188 18 27.195312 18 27 Z M 18 27 " fill-opacity="1" fill-rule="nonzero"/><g clip-path="url(#830236ba5e)"><path fill="#ffffff" d="M 35.25 31.5 L 33.75 31.5 L 33.75 15.75 C 33.75 15.542969 33.675781 15.367188 33.53125 15.21875 C 33.382812 15.074219 33.207031 15 33 15 L 29.25 15 L 29.25 0.75 C 29.25 0.542969 29.175781 0.367188 29.03125 0.21875 C 28.882812 0.0742188 28.707031 0 28.5 0 L 9 0 C 8.792969 0 8.617188 0.0742188 8.46875 0.21875 C 8.324219 0.367188 8.25 0.542969 8.25 0.75 L 8.25 15 L 4.5 15 C 4.292969 15 4.117188 15.074219 3.96875 15.21875 C 3.824219 15.367188 3.75 15.542969 3.75 15.75 L 3.75 31.5 L 2.25 31.5 C 2.042969 31.5 1.867188 31.574219 1.71875 31.71875 C 1.574219 31.867188 1.5 32.042969 1.5 32.25 C 1.5 32.59375 1.535156 32.9375 1.601562 33.273438 C 1.667969 33.613281 1.769531 33.941406 1.898438 34.257812 C 2.03125 34.578125 2.191406 34.878906 2.386719 35.167969 C 2.578125 35.453125 2.792969 35.71875 3.039062 35.960938 C 3.28125 36.207031 3.546875 36.421875 3.832031 36.613281 C 4.121094 36.808594 4.421875 36.96875 4.742188 37.101562 C 5.058594 37.230469 5.386719 37.332031 5.726562 37.398438 C 6.0625 37.464844 6.40625 37.5 6.75 37.5 L 30.75 37.5 C 31.09375 37.5 31.4375 37.464844 31.773438 37.398438 C 32.113281 37.332031 32.441406 37.230469 32.757812 37.101562 C 33.078125 36.96875 33.378906 36.808594 33.667969 36.613281 C 33.953125 36.421875 34.21875 36.207031 34.460938 35.960938 C 34.707031 35.71875 34.921875 35.453125 35.113281 35.167969 C 35.308594 34.878906 35.46875 34.578125 35.601562 34.257812 C 35.730469 33.941406 35.832031 33.613281 35.898438 33.273438 C 35.964844 32.9375 36 32.59375 36 32.25 C 36 32.042969 35.925781 31.867188 35.78125 31.71875 C 35.632812 31.574219 35.457031 31.5 35.25 31.5 Z M 16.5 1.5 L 21 1.5 L 21 8.308594 L 19.183594 7.027344 C 19.054688 6.933594 18.910156 6.886719 18.75 6.886719 C 18.589844 6.886719 18.445312 6.933594 18.316406 7.027344 L 16.5 8.308594 Z M 9.75 1.5 L 15 1.5 L 15 9.75 C 15 10.054688 15.132812 10.277344 15.40625 10.417969 C 15.675781 10.558594 15.9375 10.542969 16.183594 10.363281 L 18.75 8.558594 L 21.316406 10.363281 C 21.554688 10.527344 21.804688 10.542969 22.066406 10.417969 C 22.347656 10.285156 22.496094 10.0625 22.5 9.75 L 22.5 1.5 L 27.75 1.5 L 27.75 18 L 9.75 18 Z M 5.25 16.5 L 8.25 16.5 L 8.25 18.75 C 8.25 18.957031 8.324219 19.132812 8.46875 19.28125 C 8.617188 19.425781 8.792969 19.5 9 19.5 L 28.5 19.5 C 28.707031 19.5 28.882812 19.425781 29.03125 19.28125 C 29.175781 19.132812 29.25 18.957031 29.25 18.75 L 29.25 16.5 L 32.25 16.5 L 32.25 31.5 L 24 31.5 C 23.792969 31.5 23.617188 31.574219 23.46875 31.71875 C 23.324219 31.867188 23.25 32.042969 23.25 32.25 L 23.25 33 L 14.25 33 L 14.25 32.25 C 14.25 32.042969 14.175781 31.867188 14.03125 31.71875 C 13.882812 31.574219 13.707031 31.5 13.5 31.5 L 5.25 31.5 Z M 33.398438 34.90625 C 32.664062 35.636719 31.78125 36 30.75 36 L 6.75 36 C 6.316406 36 5.898438 35.925781 5.492188 35.78125 C 5.082031 35.636719 4.710938 35.429688 4.378906 35.15625 C 4.042969 34.882812 3.765625 34.558594 3.539062 34.191406 C 3.316406 33.820312 3.160156 33.421875 3.074219 33 L 12.75 33 L 12.75 33.75 C 12.75 33.957031 12.824219 34.132812 12.96875 34.28125 C 13.117188 34.425781 13.292969 34.5 13.5 34.5 L 24 34.5 C 24.207031 34.5 24.382812 34.425781 24.53125 34.28125 C 24.675781 34.132812 24.75 33.957031 24.75 33.75 L 24.75 33 L 34.425781 33 C 34.277344 33.738281 33.933594 34.375 33.398438 34.90625 Z M 33.398438 34.90625 " fill-opacity="1" fill-rule="nonzero"/></g></svg>